REM DIRINDEX 1\2,1\3
REM DIRNAME folder01,folder02,folder03
TITLE ""
FILE "CD2Track35.mp3" MP3
  TRACK 01 AUDIO
    TITLE "0:"
    INDEX 01 00:00:00
  TRACK 02 AUDIO
    TITLE "2:cjc102_3957"
    INDEX 01 00:00:25
  TRACK 03 AUDIO
    TITLE "0:"
    INDEX 01 00:01:03
  TRACK 04 AUDIO
    TITLE "3:cjc102_3958"
    INDEX 01 00:01:28
  TRACK 05 AUDIO
    TITLE "0:"
    INDEX 01 00:02:67
  TRACK 06 AUDIO
    TITLE "3:cjc102_3959"
    INDEX 01 00:04:11
  TRACK 07 AUDIO
    TITLE "0:"
    INDEX 01 00:08:11
  TRACK 08 AUDIO
    TITLE "2:cjc102_3960"
    INDEX 01 00:08:13
  TRACK 09 AUDIO
    TITLE "0:"
    INDEX 01 00:09:36
  TRACK 10 AUDIO
    TITLE "3:cjc102_3961"
    INDEX 01 00:10:27
  TRACK 11 AUDIO
    TITLE "0:"
    INDEX 01 00:11:21
  TRACK 12 AUDIO
    TITLE "2:cjc102_3962"
    INDEX 01 00:11:42
  TRACK 13 AUDIO
    TITLE "0:"
    INDEX 01 00:12:54
  TRACK 14 AUDIO
    TITLE "3:cjc102_3963"
    INDEX 01 00:13:16
  TRACK 15 AUDIO
    TITLE "0:"
    INDEX 01 00:14:00
  TRACK 16 AUDIO
    TITLE "2:cjc102_3964"
    INDEX 01 00:14:41
  TRACK 17 AUDIO
    TITLE "0:"
    INDEX 01 00:15:66
  TRACK 18 AUDIO
    TITLE "3:cjc102_3965"
    INDEX 01 00:17:20
  TRACK 19 AUDIO
    TITLE "0:"
    INDEX 01 00:18:19
  TRACK 20 AUDIO
    TITLE "2:cjc102_3966"
    INDEX 01 00:18:21
  TRACK 21 AUDIO
    TITLE "0:"
    INDEX 01 00:19:28
  TRACK 22 AUDIO
    TITLE "3:cjc102_3967"
    INDEX 01 00:20:69
  TRACK 23 AUDIO
    TITLE "0:"
    INDEX 01 00:21:64
  TRACK 24 AUDIO
    TITLE "2:cjc102_3968"
    INDEX 01 00:21:72
  TRACK 25 AUDIO
    TITLE "0:"
    INDEX 01 00:22:72
  TRACK 26 AUDIO
    TITLE "3:cjc102_3969"
    INDEX 01 00:24:08
  TRACK 27 AUDIO
    TITLE "0:"
    INDEX 01 00:24:63
  TRACK 28 AUDIO
    TITLE "2:cjc102_3970"
    INDEX 01 00:25:39
  TRACK 29 AUDIO
    TITLE "0:"
    INDEX 01 00:26:48
  TRACK 30 AUDIO
    TITLE "3:cjc102_3971"
    INDEX 01 00:27:16
  TRACK 31 AUDIO
    TITLE "0:"
    INDEX 01 00:28:15
  TRACK 32 AUDIO
    TITLE "2:cjc102_3972"
    INDEX 01 00:29:15
  TRACK 33 AUDIO
    TITLE "0:"
    INDEX 01 00:30:03
  TRACK 34 AUDIO
    TITLE "3:cjc102_3973"
    INDEX 01 00:31:47
  TRACK 35 AUDIO
    TITLE "0:"
    INDEX 01 00:32:43
  TRACK 36 AUDIO
    TITLE "2:cjc102_3974"
    INDEX 01 00:32:58
  TRACK 37 AUDIO
    TITLE "0:"
    INDEX 01 00:33:64
  TRACK 38 AUDIO
    TITLE "3:cjc102_3975"
    INDEX 01 00:35:70
  TRACK 39 AUDIO
    TITLE "0:"
    INDEX 01 00:36:50
  TRACK 40 AUDIO
    TITLE "2:cjc102_3976"
    INDEX 01 00:36:54
  TRACK 41 AUDIO
    TITLE "0:"
    INDEX 01 00:38:10
  TRACK 42 AUDIO
    TITLE "3:cjc102_3977"
    INDEX 01 00:39:27
  TRACK 43 AUDIO
    TITLE "0:"
    INDEX 01 00:40:21
  TRACK 44 AUDIO
    TITLE "2:cjc102_3978"
    INDEX 01 00:40:60
  TRACK 45 AUDIO
    TITLE "0:"
    INDEX 01 00:42:00
  TRACK 46 AUDIO
    TITLE "3:cjc102_3979"
    INDEX 01 00:42:74
  TRACK 47 AUDIO
    TITLE "0:"
    INDEX 01 00:43:70
  TRACK 48 AUDIO
    TITLE "2:cjc102_3980"
    INDEX 01 00:44:18
  TRACK 49 AUDIO
    TITLE "0:"
    INDEX 01 00:45:43
  TRACK 50 AUDIO
    TITLE "3:cjc102_3981"
    INDEX 01 00:46:21
  TRACK 51 AUDIO
    TITLE "0:"
    INDEX 01 00:47:36
  TRACK 52 AUDIO
    TITLE "2:cjc102_3982"
    INDEX 01 00:48:24
  TRACK 53 AUDIO
    TITLE "0:"
    INDEX 01 00:49:37
  TRACK 54 AUDIO
    TITLE "3:cjc102_3983"
    INDEX 01 00:50:46
  TRACK 55 AUDIO
    TITLE "0:"
    INDEX 01 00:51:58
  TRACK 56 AUDIO
    TITLE "2:cjc102_3984"
    INDEX 01 00:52:10
  TRACK 57 AUDIO
    TITLE "0:"
    INDEX 01 00:53:31
  TRACK 58 AUDIO
    TITLE "3:cjc102_3985"
    INDEX 01 00:54:50
  TRACK 59 AUDIO
    TITLE "0:"
    INDEX 01 00:55:69
  TRACK 60 AUDIO
    TITLE "2:cjc102_3986"
    INDEX 01 00:56:24
  TRACK 61 AUDIO
    TITLE "0:"
    INDEX 01 00:57:43
  TRACK 62 AUDIO
    TITLE "3:cjc102_3987"
    INDEX 01 00:58:11
  TRACK 63 AUDIO
    TITLE "0:"
    INDEX 01 00:59:30
  TRACK 64 AUDIO
    TITLE "2:cjc102_3988"
    INDEX 01 01:00:06
  TRACK 65 AUDIO
    TITLE "0:"
    INDEX 01 01:01:21
  TRACK 66 AUDIO
    TITLE "3:cjc102_3989"
    INDEX 01 01:02:12
  TRACK 67 AUDIO
    TITLE "0:"
    INDEX 01 01:03:22
  TRACK 68 AUDIO
    TITLE "2:cjc102_3990"
    INDEX 01 01:04:00
  TRACK 69 AUDIO
    TITLE "0:"
    INDEX 01 01:05:22
  TRACK 70 AUDIO
    TITLE "3:cjc102_3991"
    INDEX 01 01:07:06
  TRACK 71 AUDIO
    TITLE "0:"
    INDEX 01 01:08:09
  TRACK 72 AUDIO
    TITLE "2:cjc102_3992"
    INDEX 01 01:08:15
  TRACK 73 AUDIO
    TITLE "0:"
    INDEX 01 01:09:24
  TRACK 74 AUDIO
    TITLE "3:cjc102_3993"
    INDEX 01 01:11:31
  TRACK 75 AUDIO
    TITLE "0:"
    INDEX 01 01:12:52
  TRACK 76 AUDIO
    TITLE "2:cjc102_3994"
    INDEX 01 01:13:10
  TRACK 77 AUDIO
    TITLE "0:"
    INDEX 01 01:14:21
  TRACK 78 AUDIO
    TITLE "2:cjc102_3995"
    INDEX 01 01:14:74
  TRACK 79 AUDIO
    TITLE "0:"
    INDEX 01 01:16:11
  TRACK 80 AUDIO
    TITLE "3:cjc102_3996"
    INDEX 01 01:17:08
  TRACK 81 AUDIO
    TITLE "0:"
    INDEX 01 01:18:25
  TRACK 82 AUDIO
    TITLE "2:cjc102_3997"
    INDEX 01 01:18:29
  TRACK 83 AUDIO
    TITLE "0:"
    INDEX 01 01:19:36
  TRACK 84 AUDIO
    TITLE "2:cjc102_3998"
    INDEX 01 01:20:34
  TRACK 85 AUDIO
    TITLE "0:"
    INDEX 01 01:21:43
  TRACK 86 AUDIO
    TITLE "3:cjc102_3999"
    INDEX 01 01:22:37
  TRACK 87 AUDIO
    TITLE "0:"
    INDEX 01 01:23:60
  TRACK 88 AUDIO
    TITLE "2:cjc102_4000"
    INDEX 01 01:24:34
  TRACK 89 AUDIO
    TITLE "0:"
    INDEX 01 01:25:27
  TRACK 90 AUDIO
    TITLE "2:cjc102_4001"
    INDEX 01 01:26:36
  TRACK 91 AUDIO
    TITLE "0:"
    INDEX 01 01:27:24
  TRACK 92 AUDIO
    TITLE "3:cjc102_4002"
    INDEX 01 01:28:45
  TRACK 93 AUDIO
    TITLE "0:"
    INDEX 01 01:29:54
  TRACK 94 AUDIO
    TITLE "2:cjc102_4003"
    INDEX 01 01:30:03
  TRACK 95 AUDIO
    TITLE "0:"
    INDEX 01 01:31:12
  TRACK 96 AUDIO
    TITLE "2:cjc102_4004"
    INDEX 01 01:32:12
  TRACK 97 AUDIO
    TITLE "0:"
    INDEX 01 01:33:21
  TRACK 98 AUDIO
    TITLE "3:cjc102_4005"
    INDEX 01 01:34:38
  TRACK 99 AUDIO
    TITLE "0:"
    INDEX 01 01:35:69
  TRACK 100 AUDIO
    TITLE "2:cjc102_4006"
    INDEX 01 01:36:15
  TRACK 101 AUDIO
    TITLE "0:"
    INDEX 01 01:37:03
  TRACK 102 AUDIO
    TITLE "2:cjc102_4007"
    INDEX 01 01:38:28
  TRACK 103 AUDIO
    TITLE "0:"
    INDEX 01 01:39:12
  TRACK 104 AUDIO
    TITLE "3:cjc102_4008"
    INDEX 01 01:40:17
  TRACK 105 AUDIO
    TITLE "0:"
    INDEX 01 01:41:36
  TRACK 106 AUDIO
    TITLE "2:cjc102_4009"
    INDEX 01 01:42:22
  TRACK 107 AUDIO
    TITLE "0:"
    INDEX 01 01:43:25
  TRACK 108 AUDIO
    TITLE "2:cjc102_4010"
    INDEX 01 01:44:17
  TRACK 109 AUDIO
    TITLE "0:"
    INDEX 01 01:45:18
  TRACK 110 AUDIO
    TITLE "3:cjc102_4011"
    INDEX 01 01:46:74
  TRACK 111 AUDIO
    TITLE "0:"
    INDEX 01 01:48:24
  TRACK 112 AUDIO
    TITLE "2:cjc102_4012"
    INDEX 01 01:48:71
  TRACK 113 AUDIO
    TITLE "0:"
    INDEX 01 01:52:16
  TRACK 114 AUDIO
    TITLE "3:cjc102_4013"
    INDEX 01 01:53:59
  TRACK 115 AUDIO
    TITLE "0:"
    INDEX 01 01:55:16
  TRACK 116 AUDIO
    TITLE "2:cjc102_4014"
    INDEX 01 01:55:18
  TRACK 117 AUDIO
    TITLE "0:"
    INDEX 01 01:58:60
  TRACK 118 AUDIO
    TITLE "3:cjc102_4015"
    INDEX 01 02:00:25
  TRACK 119 AUDIO
    TITLE "0:"
    INDEX 01 02:01:48
  TRACK 120 AUDIO
    TITLE "2:cjc102_4016"
    INDEX 01 02:01:54
  TRACK 121 AUDIO
    TITLE "0:"
    INDEX 01 02:05:70
